<?xml version="1.0" encoding="UTF-8"?>
<svg id="Capa_2" xmlns="http://www.w3.org/2000/svg" xmlns:xlink="http://www.w3.org/1999/xlink" viewBox="0 0 298.64 101.17">
  <defs>
    <style>
      .cls-1 {
        fill: url(#Nueva_muestra_de_degradado_1-2);
      }

      .cls-2 {
        fill: url(#Nueva_muestra_de_degradado_1-4);
      }

      .cls-3 {
        fill: url(#Nueva_muestra_de_degradado_1-3);
      }

      .cls-4 {
        fill: url(#Nueva_muestra_de_degradado_1-5);
      }

      .cls-5 {
        fill: gray;
      }

      .cls-6 {
        fill: #1d1e1c;
      }

      .cls-7 {
        fill: #3c4a98;
      }

      .cls-8 {
        fill: #eb6209;
      }

      .cls-9 {
        fill: url(#Nueva_muestra_de_degradado_1);
      }

      .cls-10 {
        fill: url(#Degradado_sin_nombre_17);
      }
    </style>
    <linearGradient id="Nueva_muestra_de_degradado_1" data-name="Nueva muestra de degradado 1" x1="-1206.76" y1="3097.23" x2="-1206.76" y2="3061.81" gradientTransform="translate(1245.38 -3043.89)" gradientUnits="userSpaceOnUse">
      <stop offset="0" stop-color="#c74390"/>
      <stop offset=".15" stop-color="#c14a95"/>
      <stop offset=".37" stop-color="#b25ea4"/>
      <stop offset=".64" stop-color="#9a80bd"/>
      <stop offset=".94" stop-color="#78aedf"/>
      <stop offset="1" stop-color="#71b9e7"/>
    </linearGradient>
    <linearGradient id="Degradado_sin_nombre_17" data-name="Degradado sin nombre 17" x1="-1253.33" y1="3094.13" x2="-1214.33" y2="3055.14" gradientTransform="translate(1245.38 -3043.89)" gradientUnits="userSpaceOnUse">
      <stop offset="0" stop-color="#c74390"/>
      <stop offset=".18" stop-color="#c34793"/>
      <stop offset=".36" stop-color="#ba539c"/>
      <stop offset=".55" stop-color="#ab68ab"/>
      <stop offset=".75" stop-color="#9586c1"/>
      <stop offset=".94" stop-color="#7aabdd"/>
      <stop offset="1" stop-color="#71b9e7"/>
    </linearGradient>
    <linearGradient id="Nueva_muestra_de_degradado_1-2" data-name="Nueva muestra de degradado 1" x1="-1247.27" y1="3109.35" x2="-1220.69" y2="3082.76" xlink:href="#Nueva_muestra_de_degradado_1"/>
    <linearGradient id="Nueva_muestra_de_degradado_1-3" data-name="Nueva muestra de degradado 1" x1="-1206.76" y1="3115.06" x2="-1206.76" y2="3087.97" xlink:href="#Nueva_muestra_de_degradado_1"/>
    <linearGradient id="Nueva_muestra_de_degradado_1-4" data-name="Nueva muestra de degradado 1" x1="-1178.66" y1="3075.3" x2="-1178.66" y2="3103.35" xlink:href="#Nueva_muestra_de_degradado_1"/>
    <linearGradient id="Nueva_muestra_de_degradado_1-5" data-name="Nueva muestra de degradado 1" x1="-1178.11" y1="3095.87" x2="-1178.11" y2="3115.06" xlink:href="#Nueva_muestra_de_degradado_1"/>
  </defs>
  <g id="Capa_1-2" data-name="Capa_1">
    <g>
      <g>
        <g>
          <path class="cls-7" d="M18.58.71s1.85.13,2.51,1.98,15.49,43.81,15.49,43.81l-3.69,23.51s-2.77,1.98-4.09,0-14.31-24.04-14.31-24.04c0,0-3.04-4.74,0-8.34,3.04-3.6,4.35-4.62,4.35-4.62L9.22,6.12s-.13-4.62,9.36-5.41Z"/>
          <path class="cls-7" d="M46.27,18.78s1.45-.13,2.64,1.71c1.19,1.85,12.79,24.26,12.79,24.26l3.16,5.27s1.19.81.79,3.31-6.06,17.64-6.06,17.64c0,0,.26.55-1.85-1.83-2.11-2.37-14.37-15.81-14.37-15.81,0,0-1.85-2.78,0-4.76,1.85-1.98,5.41-4.5,5.41-4.5l-6.23-9.48,3.72-15.82Z"/>
          <path class="cls-9" d="M29.68,46.49l3.55-18.36s1.45-7.91,7.12-9.23c5.67-1.32,6.33-.92,6.33-.92,0,0,1.1-.26.88,1.32s-5.14,32.26-5.14,32.26c0,0-13.49,6.41-12.75-5.06Z"/>
          <path class="cls-10" d="M.03,54.25L5.92,10.21S7.37,2.3,13.04.98C18.71-.34,19.37.06,19.37.06c0,0,1.1-.26.88,1.32s-7.47,57.94-7.47,57.94c0,0-13.49,6.41-12.75-5.06Z"/>
          <path class="cls-1" d="M20.25,34.43l-5.63,32.35s-1.93,6.33-7.91,4.75C.73,69.94.03,66.6.03,66.6l5.27-26.37s2.05-7.03,12.78-6.15l2.16.35Z"/>
          <path class="cls-3" d="M47.59,45.07l-3.25,18.72s-.09,2.11-2.64,3.78c-2.55,1.67-5.71,3.08-8.88,3.34l-3.16.26,3.34-19.78s2.29-7.65,11.96-7.3h2.64s0,.97,0,.97Z"/>
          <path class="cls-2" d="M59.19,53.34l1.71-16.23s1.32-6.2,7.38-5.67c6.07.53,6.07,6.99,6.07,6.99l-1.71,14.91s-1.05,7.22-7.91,5.98c-6.86-1.24-5.54-5.98-5.54-5.98Z"/>
          <path class="cls-4" d="M75.43,57.52l-1.07,5.7s-1.82,6.59-7.63,7.12-7.63.84-7.63.84l2.74-14.29s1.19-5.93,6.86-4.75c4.08.85,5.84,2.94,6.5,4.04.24.4.32.88.23,1.34Z"/>
        </g>
        <g>
          <g>
            <rect class="cls-8" x="296.11" y="95.49" width="2.53" height="2.53"/>
            <polygon class="cls-8" points="290.98 84.22 292.49 95.53 293.99 84.22 296.34 84.22 294.14 98.02 290.8 98.02 288.63 84.22 290.98 84.22"/>
            <path class="cls-8" d="M260.32,84.22h-1.3v1.83h1.3v11.96h2.29v-11.96h1.61v-1.83h-1.61v-2.8c0-.41.09-.72.28-.94.2-.21.5-.31.91-.31h.41v-1.88h-.83c-1.02,0-2,.21-2.46.66-.47.44-.6,1.13-.6,2.11v3.17Z"/>
            <rect class="cls-8" x="264.93" y="84.22" width="2.3" height="13.79"/>
            <path class="cls-8" d="M277.81,87.19c0-.78.2-1.58,1.27-1.58s1.29.79,1.29,1.58v2.85h-2.56v-2.85ZM277.81,91.9h4.78v-4.25c0-2.54-1.23-3.59-3.54-3.59s-3.54,1.04-3.54,3.6v6.98c0,2.33,1.42,3.54,3.54,3.54s3.54-.99,3.55-3.54v-1.1h-2.22s0,.98,0,1.31c0,.93-.35,1.58-1.29,1.58s-1.28-.65-1.28-1.58v-2.95Z"/>
            <path class="cls-8" d="M272.38,90.17c-1.73-1.52-1.87-1.73-1.87-2.85,0-.96.08-1.54.94-1.54s.97.58.97,1.55v1.27h2.21v-2.08c0-1.63-1.26-2.46-3.23-2.46s-3.2.65-3.22,3.25c0,.44,0,.44,0,.27,0,.82,0,2.12,2.04,3.86l.58.5c1.5,1.26,1.66,1.41,1.65,2.91,0,.92-.06,1.62-1.03,1.62s-1.03-.71-1.03-1.14v-1.77h-2.32v1.82c0,2.24,1.46,2.79,3.35,2.79s3.35-.56,3.35-3.44v-.24c0-2.01-.37-2.55-2.39-4.34"/>
            <path class="cls-8" d="M285.66,85.64v-1.42h-2.09v13.79h2.26v-9.61c0-.74.24-1.23.66-1.52.4-.28.89-.37,1.52-.38v-2.44c-1.2.02-1.71.26-2.32,1.53l-.02.05Z"/>
          </g>
          <g>
            <path class="cls-5" d="M249.54,94.51c0,1.24-.2,2.16-.59,2.78s-1.02.93-1.86.93c-.66,0-1.19-.3-1.59-.9l-.06.75h-1.84v-10.84h2v3.82c.38-.51.87-.76,1.49-.76.85,0,1.47.31,1.86.92s.6,1.51.61,2.7v.59ZM247.54,94.01c0-.8-.08-1.34-.23-1.62-.16-.27-.43-.41-.81-.41-.42,0-.72.19-.92.57v3.48c.18.36.49.54.93.54.38,0,.65-.12.79-.37.15-.25.23-.73.24-1.45v-.73Z"/>
            <path class="cls-5" d="M253.11,94.76l1.02-4.31h2.13l-2.51,8.78c-.38,1.29-1.08,1.94-2.12,1.94-.24,0-.51-.04-.82-.13v-1.56h.23c.31,0,.54-.05.7-.17.16-.12.28-.33.36-.62l.16-.52-2.2-7.71h2.15l.92,4.31Z"/>
          </g>
        </g>
      </g>
      <g>
        <path class="cls-6" d="M110.69,19.04h11.07c6.35,0,11.8,1.85,11.8,7.66,0,5.64-5.63,8.09-11.8,8.09h-3.27s0,7.31,0,7.31h-7.8v-23.06ZM121.4,29.97c3.08,0,4.54-1.21,4.54-3.26s-1.63-2.84-4.54-2.84h-2.9s0,6.1,0,6.1h2.9Z"/>
        <path class="cls-6" d="M136.09,30.47c0-7.81,4.9-11.85,12.07-11.85,7.17,0,12.07,4.05,12.07,11.85s-4.9,12.06-12.07,12.06c-7.17,0-12.07-4.05-12.07-12.06ZM152.24,30.47c0-4.4-1.54-6.6-4.08-6.6-2.54,0-4.08,2.2-4.08,6.6,0,4.61,1.54,6.81,4.08,6.81s4.08-2.2,4.08-6.81Z"/>
        <path class="cls-6" d="M163.31,39.23l4.45-4.19c2.22,1.31,4.85,2.24,7.53,2.24,2.36,0,3.27-.6,3.27-1.35,0-1.35-1.54-1.63-4.26-2.52l-3.67-1.21c-3.4-.99-6.21-3.09-6.21-6.42,0-3.94,4.54-7.17,11.25-7.17,3.49,0,7.21.99,10.07,3.09l-3.9,3.83c-2.13-1.1-3.81-1.67-6.62-1.67-1.72,0-2.9.5-2.9,1.56s1.68,1.45,4.63,2.31l3.4,1.1c3.95,1.14,6.21,3.12,6.21,6.32,0,3.9-4.17,7.38-11.79,7.38-3.86,0-8.12-1.06-11.43-3.3Z"/>
        <path class="cls-6" d="M207.92,24.15h-8.48v-5.11h24.77v5.11h-8.48s0,17.95,0,17.95h-7.8v-17.95Z"/>
        <path class="cls-6" d="M227.88,19.04h11.07c6.35,0,11.8,1.85,11.8,7.66s-5.63,8.09-11.8,8.09h-3.27s0,7.31,0,7.31h-7.8v-23.06ZM238.59,29.97c3.08,0,4.54-1.21,4.54-3.26,0-2.06-1.63-2.84-4.54-2.84h-2.9s0,6.1,0,6.1h2.9Z"/>
        <path class="cls-6" d="M251.92,19.04h8.26s3.08,10.08,3.08,10.08c.82,2.45,1.36,4.83,2.18,7.31h.18c.82-2.48,1.41-4.86,2.18-7.31l2.99-10.08h7.98s-8.71,23.06-8.71,23.06h-9.44s-8.71-23.06-8.71-23.06Z"/>
        <path class="cls-6" d="M89.27,67.28l4.45-4.19c2.22,1.31,4.85,2.24,7.53,2.24,2.36,0,3.27-.6,3.27-1.35,0-1.35-1.54-1.63-4.26-2.52l-3.67-1.21c-3.4-.99-6.21-3.09-6.21-6.42,0-3.94,4.54-7.17,11.25-7.17,3.49,0,7.21.99,10.07,3.09l-3.9,3.83c-2.13-1.1-3.81-1.67-6.62-1.67-1.72,0-2.9.5-2.9,1.56,0,1.06,1.68,1.45,4.63,2.31l3.4,1.1c3.95,1.14,6.21,3.12,6.21,6.32,0,3.9-4.17,7.38-11.79,7.38-3.86,0-8.12-1.06-11.43-3.3Z"/>
        <path class="cls-6" d="M115.57,58.52c0-7.81,4.9-11.85,12.07-11.85,7.17,0,12.07,4.05,12.07,11.85,0,8.02-4.9,12.06-12.07,12.06-7.17,0-12.07-4.05-12.07-12.06ZM131.72,58.52c0-4.4-1.54-6.6-4.08-6.6s-4.08,2.2-4.08,6.6,1.54,6.81,4.08,6.81,4.08-2.2,4.08-6.81Z"/>
        <path class="cls-6" d="M143.59,47.09h7.8v17.95s12.57,0,12.57,0v5.11h-20.37v-23.06Z"/>
        <path class="cls-6" d="M168.63,61.21v-14.12h7.8v14.83c0,1.99.77,3.41,3.27,3.41s3.36-1.42,3.36-3.41v-14.83h7.53v14.12c0,5.75-3.18,9.37-10.89,9.37-7.71,0-11.07-3.62-11.07-9.37Z"/>
        <path class="cls-6" d="M202.46,52.2h-8.48v-5.11h24.77v5.11h-8.48s0,17.95,0,17.95h-7.8v-17.95Z"/>
        <path class="cls-6" d="M222.51,65.04h6.71s0-12.84,0-12.84h-6.71v-5.11h21.23v5.11h-6.71s0,12.84,0,12.84h6.71v5.11h-21.23v-5.11Z"/>
        <path class="cls-6" d="M247.04,58.52c0-7.81,4.9-11.85,12.07-11.85,7.17,0,12.07,4.05,12.07,11.85,0,8.02-4.9,12.06-12.07,12.06-7.17,0-12.07-4.05-12.07-12.06ZM263.19,58.52c0-4.4-1.54-6.6-4.08-6.6-2.54,0-4.08,2.2-4.08,6.6,0,4.61,1.54,6.81,4.08,6.81,2.54,0,4.08-2.2,4.08-6.81Z"/>
        <path class="cls-6" d="M274.2,47.09h7.89s4.94,10.29,4.94,10.29l2.4,5.18h.18c-.36-2.48-1.09-5.96-1.09-8.8v-6.67h7.44v23.06h-7.89s-4.94-10.33-4.94-10.33l-2.4-5.15h-.18c.36,2.63,1.09,5.96,1.09,8.8v6.67h-7.44v-23.06Z"/>
      </g>
    </g>
  </g>
</svg>