<?xml version="1.0" encoding="UTF-8"?>
<svg id="Capa_2" xmlns="http://www.w3.org/2000/svg" xmlns:xlink="http://www.w3.org/1999/xlink" viewBox="0 0 285.59 117.57">
  <defs>
    <style>
      .cls-1 {
        fill: url(#Nueva_muestra_de_degradado_1-2);
      }

      .cls-2 {
        fill: url(#Nueva_muestra_de_degradado_1-4);
      }

      .cls-3 {
        fill: url(#Nueva_muestra_de_degradado_1-3);
      }

      .cls-4 {
        fill: url(#Nueva_muestra_de_degradado_1-5);
      }

      .cls-5 {
        fill: #1d1e1c;
      }

      .cls-6 {
        fill: #3c4a98;
      }

      .cls-7 {
        letter-spacing: 0em;
      }

      .cls-8 {
        fill: #eb6209;
      }

      .cls-9 {
        fill: url(#Nueva_muestra_de_degradado_1);
      }

      .cls-10 {
        fill: none;
        stroke: gray;
        stroke-miterlimit: 10;
        stroke-width: .6px;
      }

      .cls-11 {
        fill: url(#Degradado_sin_nombre_17);
      }

      .cls-12 {
        letter-spacing: 0em;
      }

      .cls-13 {
        fill: gray;
        font-family: RobotoCondensed-Bold, 'Roboto Condensed';
        font-size: 14.42px;
        font-weight: 700;
      }
    </style>
    <linearGradient id="Nueva_muestra_de_degradado_1" data-name="Nueva muestra de degradado 1" x1="-1180.57" y1="3101.03" x2="-1180.57" y2="3063.09" gradientTransform="translate(1245.38 -3043.89)" gradientUnits="userSpaceOnUse">
      <stop offset="0" stop-color="#c74390"/>
      <stop offset=".15" stop-color="#c14a95"/>
      <stop offset=".37" stop-color="#b25ea4"/>
      <stop offset=".64" stop-color="#9a80bd"/>
      <stop offset=".94" stop-color="#78aedf"/>
      <stop offset="1" stop-color="#71b9e7"/>
    </linearGradient>
    <linearGradient id="Degradado_sin_nombre_17" data-name="Degradado sin nombre 17" x1="-1230.44" y1="3097.71" x2="-1188.67" y2="3055.94" gradientTransform="translate(1245.38 -3043.89)" gradientUnits="userSpaceOnUse">
      <stop offset="0" stop-color="#c74390"/>
      <stop offset=".18" stop-color="#c34793"/>
      <stop offset=".36" stop-color="#ba539c"/>
      <stop offset=".55" stop-color="#ab68ab"/>
      <stop offset=".75" stop-color="#9586c1"/>
      <stop offset=".94" stop-color="#7aabdd"/>
      <stop offset="1" stop-color="#71b9e7"/>
    </linearGradient>
    <linearGradient id="Nueva_muestra_de_degradado_1-2" data-name="Nueva muestra de degradado 1" x1="-1223.96" y1="3114.02" x2="-1195.48" y2="3085.53" xlink:href="#Nueva_muestra_de_degradado_1"/>
    <linearGradient id="Nueva_muestra_de_degradado_1-3" data-name="Nueva muestra de degradado 1" x1="-1180.56" y1="3120.13" x2="-1180.56" y2="3091.11" xlink:href="#Nueva_muestra_de_degradado_1"/>
    <linearGradient id="Nueva_muestra_de_degradado_1-4" data-name="Nueva muestra de degradado 1" x1="-1150.46" y1="3077.53" x2="-1150.46" y2="3107.58" xlink:href="#Nueva_muestra_de_degradado_1"/>
    <linearGradient id="Nueva_muestra_de_degradado_1-5" data-name="Nueva muestra de degradado 1" x1="-1149.87" y1="3099.58" x2="-1149.87" y2="3120.13" xlink:href="#Nueva_muestra_de_degradado_1"/>
  </defs>
  <g id="Capa_1-2" data-name="Capa_1">
    <g>
      <g>
        <path class="cls-6" d="M43.35.77s1.98.14,2.68,2.12,16.6,46.93,16.6,46.93l-3.95,25.18s-2.97,2.12-4.38,0-15.33-25.75-15.33-25.75c0,0-3.26-5.08,0-8.94,3.26-3.85,4.66-4.94,4.66-4.94l-10.31-28.82s-.14-4.94,10.03-5.79Z"/>
        <path class="cls-6" d="M73.01,20.12s1.55-.14,2.83,1.84c1.27,1.98,13.7,25.99,13.7,25.99l3.39,5.65s1.27.87.85,3.54c-.42,2.67-6.49,18.9-6.49,18.9,0,0,.28.59-1.98-1.96-2.26-2.54-15.4-16.94-15.4-16.94,0,0-1.98-2.98,0-5.1,1.98-2.12,5.79-4.82,5.79-4.82l-6.67-10.16,3.99-16.95Z"/>
        <path class="cls-9" d="M55.24,49.8l3.81-19.66s1.55-8.48,7.63-9.89c6.07-1.41,6.78-.99,6.78-.99,0,0,1.18-.28.94,1.41s-5.5,34.55-5.5,34.55c0,0-14.46,6.86-13.65-5.42Z"/>
        <path class="cls-11" d="M23.48,58.12l6.31-47.18s1.55-8.48,7.63-9.89C43.49-.36,44.2.06,44.2.06c0,0,1.18-.28.94,1.41s-8,62.07-8,62.07c0,0-14.46,6.86-13.65-5.42Z"/>
        <g>
          <path class="cls-5" d="M13.74,81.22h7.1c4.07,0,7.56,1.18,7.56,4.92s-3.61,5.19-7.56,5.19h-2.09s0,4.69,0,4.69h-5v-14.79ZM20.61,88.23c1.98,0,2.91-.77,2.91-2.09s-1.05-1.82-2.91-1.82h-1.86s0,3.91,0,3.91h1.86Z"/>
          <path class="cls-5" d="M30.03,88.55c0-5.01,3.14-7.6,7.74-7.6,4.6,0,7.74,2.59,7.74,7.6s-3.14,7.74-7.74,7.74c-4.6,0-7.74-2.59-7.74-7.74ZM40.39,88.55c0-2.82-.99-4.23-2.62-4.23s-2.62,1.41-2.62,4.23c0,2.96.99,4.37,2.62,4.37s2.62-1.41,2.62-4.37Z"/>
          <path class="cls-5" d="M47.48,94.17l2.85-2.69c1.43.84,3.11,1.43,4.83,1.43,1.51,0,2.09-.39,2.09-.86,0-.86-.99-1.05-2.73-1.62l-2.36-.77c-2.18-.64-3.99-1.98-3.99-4.12,0-2.53,2.91-4.6,7.21-4.6,2.24,0,4.63.64,6.46,1.98l-2.5,2.46c-1.37-.71-2.44-1.07-4.25-1.07-1.11,0-1.86.32-1.86,1s1.08.93,2.97,1.48l2.18.71c2.53.73,3.99,2,3.99,4.05,0,2.5-2.68,4.73-7.56,4.73-2.47,0-5.21-.68-7.33-2.12Z"/>
          <path class="cls-5" d="M76.1,84.5h-5.44v-3.28h15.88v3.28h-5.44s0,11.51,0,11.51h-5v-11.51Z"/>
          <path class="cls-5" d="M88.9,81.22h7.1c4.07,0,7.56,1.18,7.56,4.92s-3.61,5.19-7.56,5.19h-2.09s0,4.69,0,4.69h-5v-14.79ZM95.76,88.23c1.98,0,2.91-.77,2.91-2.09,0-1.32-1.05-1.82-2.91-1.82h-1.86s0,3.91,0,3.91h1.86Z"/>
          <path class="cls-5" d="M104.31,81.22h5.29s1.98,6.46,1.98,6.46c.52,1.57.87,3.09,1.4,4.69h.12c.52-1.59.9-3.12,1.4-4.69l1.92-6.46h5.12s-5.59,14.79-5.59,14.79h-6.05s-5.59-14.79-5.59-14.79Z"/>
          <path class="cls-5" d="M0,112.15l2.85-2.69c1.43.84,3.11,1.43,4.83,1.43,1.51,0,2.09-.39,2.09-.86,0-.86-.99-1.05-2.73-1.62l-2.36-.77c-2.18-.64-3.99-1.98-3.99-4.12,0-2.53,2.91-4.6,7.21-4.6,2.24,0,4.63.64,6.46,1.98l-2.5,2.46c-1.37-.71-2.44-1.07-4.25-1.07-1.11,0-1.86.32-1.86,1,0,.68,1.08.93,2.97,1.48l2.18.71c2.53.73,3.99,2,3.99,4.05,0,2.5-2.68,4.73-7.56,4.73-2.47,0-5.21-.68-7.33-2.12Z"/>
          <path class="cls-5" d="M16.87,106.53c0-5.01,3.14-7.6,7.74-7.6,4.6,0,7.74,2.59,7.74,7.6,0,5.14-3.14,7.74-7.74,7.74-4.6,0-7.74-2.59-7.74-7.74ZM27.23,106.53c0-2.82-.99-4.23-2.62-4.23s-2.62,1.41-2.62,4.23c0,2.96.99,4.37,2.62,4.37s2.62-1.41,2.62-4.37Z"/>
          <path class="cls-5" d="M34.84,99.21h5v11.51s8.06,0,8.06,0v3.28h-13.06v-14.79Z"/>
          <path class="cls-5" d="M50.89,108.26v-9.06h5v9.51c0,1.27.49,2.18,2.09,2.18s2.15-.91,2.15-2.18v-9.51h4.83v9.06c0,3.69-2.04,6.01-6.98,6.01-4.95,0-7.1-2.32-7.1-6.01Z"/>
          <path class="cls-5" d="M72.59,102.48h-5.44v-3.28h15.88v3.28h-5.44s0,11.51,0,11.51h-5v-11.51Z"/>
          <path class="cls-5" d="M85.45,110.72h4.31s0-8.24,0-8.24h-4.31v-3.28h13.61v3.28h-4.31s0,8.24,0,8.24h4.31v3.28h-13.61v-3.28Z"/>
          <path class="cls-5" d="M101.18,106.53c0-5.01,3.14-7.6,7.74-7.6,4.6,0,7.74,2.59,7.74,7.6,0,5.14-3.14,7.74-7.74,7.74-4.6,0-7.74-2.59-7.74-7.74ZM111.54,106.53c0-2.82-.99-4.23-2.62-4.23s-2.62,1.41-2.62,4.23.99,4.37,2.62,4.37,2.62-1.41,2.62-4.37Z"/>
          <path class="cls-5" d="M118.6,99.21h5.06s3.17,6.6,3.17,6.6l1.54,3.32h.12c-.23-1.59-.7-3.82-.7-5.64v-4.28h4.77v14.79h-5.06s-3.17-6.62-3.17-6.62l-1.54-3.3h-.12c.23,1.68.7,3.82.7,5.64v4.28h-4.77v-14.79Z"/>
        </g>
        <path class="cls-1" d="M45.14,36.88l-6.03,34.65s-2.07,6.78-8.48,5.09c-6.4-1.7-7.16-5.27-7.16-5.27l5.65-28.25s2.2-7.53,13.69-6.59l2.32.38Z"/>
        <path class="cls-3" d="M74.43,48.27l-3.48,20.06s-.09,2.26-2.83,4.05c-2.73,1.79-6.12,3.3-9.51,3.58l-3.39.28,3.58-21.19s2.45-8.19,12.81-7.82h2.83s0,1.04,0,1.04Z"/>
        <path class="cls-2" d="M86.86,57.14l1.84-17.38s1.41-6.64,7.91-6.07c6.5.57,6.5,7.49,6.5,7.49l-1.84,15.97s-1.13,7.73-8.48,6.4c-7.35-1.33-5.93-6.4-5.93-6.4Z"/>
        <path class="cls-4" d="M104.25,61.61l-1.14,6.11s-1.95,7.06-8.18,7.63c-6.23.57-8.18.89-8.18.89l2.93-15.3s1.27-6.36,7.35-5.09c4.37.91,6.25,3.15,6.97,4.33.26.43.34.94.25,1.43Z"/>
      </g>
      <g>
        <rect class="cls-8" x="281.89" y="109.81" width="3.7" height="3.7"/>
        <polygon class="cls-8" points="274.38 93.32 276.58 109.87 278.78 93.32 282.22 93.32 279.01 113.51 274.12 113.51 270.94 93.32 274.38 93.32"/>
        <path class="cls-8" d="M229.51,93.32h-1.91v2.68h1.91v17.5h3.35v-17.5h2.35v-2.68h-2.35v-4.11c0-.6.13-1.06.41-1.37.29-.31.73-.46,1.34-.46h.6v-2.75h-1.21c-1.49,0-2.92.31-3.6.96-.68.65-.88,1.65-.88,3.08v4.63Z"/>
        <rect class="cls-8" x="236.25" y="93.32" width="3.36" height="20.19"/>
        <path class="cls-8" d="M255.11,97.67c0-1.14.3-2.32,1.86-2.32s1.89,1.16,1.89,2.32v4.17h-3.75v-4.17ZM255.11,104.56h7v-6.22c0-3.72-1.8-5.25-5.19-5.25s-5.18,1.52-5.18,5.27v10.22c0,3.41,2.07,5.18,5.18,5.18s5.18-1.45,5.19-5.18v-1.62h-3.24s0,1.44,0,1.92c0,1.37-.51,2.31-1.89,2.31s-1.87-.95-1.87-2.31v-4.32Z"/>
        <path class="cls-8" d="M247.15,102.03c-2.53-2.23-2.74-2.53-2.74-4.18,0-1.4.12-2.26,1.38-2.26s1.43.85,1.43,2.28v1.86h3.23v-3.04c0-2.39-1.85-3.6-4.73-3.6s-4.69.95-4.71,4.76c0,.65,0,.65,0,.4,0,1.2.01,3.1,2.98,5.65l.85.73c2.19,1.84,2.43,2.06,2.42,4.26,0,1.35-.08,2.38-1.5,2.38s-1.51-1.03-1.51-1.67v-2.58h-3.4v2.67c0,3.28,2.13,4.09,4.9,4.09s4.9-.82,4.9-5.04v-.35c0-2.95-.54-3.74-3.5-6.34"/>
        <path class="cls-8" d="M266.59,95.4v-2.08h-3.06v20.19h3.3v-14.07c0-1.09.35-1.8.97-2.23.58-.4,1.3-.54,2.22-.55v-3.57c-1.75.04-2.51.38-3.4,2.24l-.03.07Z"/>
      </g>
      <line class="cls-10" x1="139.54" y1="113.79" x2="206.86" y2="113.79"/>
      <text class="cls-13" transform="translate(211.47 113.66)"><tspan class="cls-12" x="0" y="0">b</tspan><tspan class="cls-7" x="7.06" y="0">y</tspan></text>
    </g>
  </g>
</svg>